<svg width="14" height="12" viewBox="0 0 14 12" fill="none" xmlns="http://www.w3.org/2000/svg">
<path d="M0 4.0767V3.91774C0 2.002 1.38141 0.368009 3.26484 0.0533794C4.48711 -0.154638 5.78047 0.252627 6.67188 1.14746L7 1.47579L7.30352 1.14746C8.21953 0.252627 9.48828 -0.154638 10.7352 0.0533794C12.6191 0.368009 14 2.002 14 3.91774V4.0767C14 5.21408 13.5297 6.30213 12.6984 7.07774L7.75742 11.7013C7.55234 11.8931 7.28164 12 7 12C6.71836 12 6.44766 11.8931 6.24258 11.7013L1.30129 7.07774C0.471133 6.30213 8.20313e-06 5.21408 8.20313e-06 4.0767H0Z" fill="white"/>
</svg>
