<svg width="122" height="19" viewBox="0 0 122 19" fill="none" xmlns="http://www.w3.org/2000/svg">
<path d="M0.0439009 18V0.545454H11.6007V3.58807H3.73424V7.74716H10.8337V10.7898H3.73424V18H0.0439009ZM17.5837 18.2472C16.7484 18.2472 16.0041 18.1023 15.3507 17.8125C14.6973 17.517 14.1803 17.0824 13.7996 16.5085C13.4246 15.929 13.2371 15.2074 13.2371 14.3438C13.2371 13.6165 13.3706 13.0057 13.6377 12.5114C13.9047 12.017 14.2683 11.6193 14.7286 11.3182C15.1888 11.017 15.7115 10.7898 16.2967 10.6364C16.8877 10.483 17.507 10.375 18.1547 10.3125C18.9161 10.233 19.5297 10.1591 19.9956 10.0909C20.4615 10.017 20.7996 9.90909 21.0098 9.76705C21.22 9.625 21.3252 9.41477 21.3252 9.13636V9.08523C21.3252 8.54545 21.1547 8.12784 20.8138 7.83239C20.4786 7.53693 20.0013 7.3892 19.382 7.3892C18.7286 7.3892 18.2087 7.53409 17.8223 7.82386C17.4359 8.10795 17.1803 8.46591 17.0553 8.89773L13.6973 8.625C13.8678 7.82955 14.203 7.14205 14.703 6.5625C15.203 5.97727 15.8479 5.52841 16.6377 5.21591C17.4331 4.89773 18.3536 4.73864 19.399 4.73864C20.1263 4.73864 20.8223 4.82386 21.4871 4.99432C22.1575 5.16477 22.7513 5.42898 23.2683 5.78693C23.7911 6.14489 24.203 6.60511 24.5041 7.16761C24.8053 7.72443 24.9558 8.39205 24.9558 9.17045V18H21.5127V16.1847H21.4104C21.2002 16.5938 20.9189 16.9545 20.5666 17.267C20.2144 17.5739 19.7911 17.8153 19.2967 17.9915C18.8024 18.1619 18.2314 18.2472 17.5837 18.2472ZM18.6234 15.7415C19.1575 15.7415 19.6291 15.6364 20.0382 15.4261C20.4473 15.2102 20.7683 14.9205 21.0013 14.5568C21.2342 14.1932 21.3507 13.7812 21.3507 13.321V11.9318C21.2371 12.0057 21.0808 12.0739 20.882 12.1364C20.6888 12.1932 20.47 12.2472 20.2257 12.2983C19.9814 12.3437 19.7371 12.3864 19.4928 12.4261C19.2484 12.4602 19.0269 12.4915 18.828 12.5199C18.4019 12.5824 18.0297 12.6818 17.7115 12.8182C17.3933 12.9545 17.1462 13.1392 16.97 13.3722C16.7939 13.5994 16.7058 13.8835 16.7058 14.2244C16.7058 14.7188 16.8848 15.0966 17.2428 15.358C17.6064 15.6136 18.0666 15.7415 18.6234 15.7415ZM31.0624 14.233L31.0709 9.87784H31.5993L35.7925 4.90909H39.9601L34.3266 11.4886H33.4658L31.0624 14.233ZM27.7726 18V0.545454H31.4033V18H27.7726ZM35.9544 18L32.1021 12.2983L34.5226 9.73295L40.2073 18H35.9544ZM47.1682 18.2557C45.8216 18.2557 44.6625 17.983 43.6909 17.4375C42.725 16.8864 41.9807 16.108 41.458 15.1023C40.9352 14.0909 40.6739 12.8949 40.6739 11.5142C40.6739 10.1676 40.9352 8.9858 41.458 7.96875C41.9807 6.9517 42.7165 6.15909 43.6654 5.59091C44.6199 5.02273 45.7392 4.73864 47.0233 4.73864C47.8869 4.73864 48.6909 4.87784 49.4352 5.15625C50.1852 5.42898 50.8386 5.84091 51.3955 6.39205C51.958 6.94318 52.3955 7.63636 52.708 8.47159C53.0205 9.30114 53.1767 10.2727 53.1767 11.3864V12.3835H42.1227V10.1335H49.7591C49.7591 9.6108 49.6455 9.14773 49.4182 8.74432C49.1909 8.34091 48.8756 8.02557 48.4722 7.7983C48.0744 7.56534 47.6114 7.44886 47.083 7.44886C46.5318 7.44886 46.0432 7.5767 45.6171 7.83239C45.1966 8.08239 44.8671 8.42045 44.6284 8.84659C44.3898 9.26705 44.2676 9.7358 44.2619 10.2528V12.392C44.2619 13.0398 44.3813 13.5994 44.6199 14.071C44.8642 14.5426 45.208 14.9062 45.6511 15.1619C46.0943 15.4176 46.6199 15.5455 47.2278 15.5455C47.6313 15.5455 48.0006 15.4886 48.3358 15.375C48.671 15.2614 48.958 15.0909 49.1966 14.8636C49.4352 14.6364 49.6171 14.358 49.7421 14.0284L53.1 14.25C52.9296 15.0568 52.5801 15.7614 52.0517 16.3636C51.529 16.9602 50.8528 17.4261 50.0233 17.7614C49.1994 18.0909 48.2477 18.2557 47.1682 18.2557ZM70.6377 5.56534C70.5695 4.87784 70.2769 4.34375 69.7598 3.96307C69.2428 3.58239 68.5411 3.39204 67.6547 3.39204C67.0524 3.39204 66.5439 3.47727 66.1291 3.64773C65.7144 3.8125 65.3962 4.04261 65.1746 4.33807C64.9587 4.63352 64.8507 4.96875 64.8507 5.34375C64.8394 5.65625 64.9047 5.92898 65.0467 6.16193C65.1945 6.39489 65.3962 6.59659 65.6519 6.76705C65.9075 6.93182 66.203 7.0767 66.5382 7.2017C66.8734 7.32102 67.2314 7.4233 67.6121 7.50852L69.1803 7.88352C69.9416 8.05398 70.6405 8.28125 71.2769 8.56534C71.9132 8.84943 72.4644 9.19886 72.9303 9.61364C73.3962 10.0284 73.757 10.517 74.0127 11.0795C74.274 11.642 74.4075 12.2869 74.4132 13.0142C74.4075 14.0824 74.1348 15.0085 73.595 15.7926C73.0609 16.571 72.2882 17.1761 71.2769 17.608C70.2712 18.0341 69.0581 18.2472 67.6377 18.2472C66.2286 18.2472 65.0013 18.0312 63.9558 17.5994C62.9161 17.1676 62.1036 16.5284 61.5183 15.6818C60.9388 14.8295 60.6348 13.7756 60.6064 12.5199H64.1774C64.2172 13.1051 64.3848 13.5937 64.6803 13.9858C64.9814 14.3722 65.382 14.6648 65.882 14.8636C66.3877 15.0568 66.9587 15.1534 67.595 15.1534C68.22 15.1534 68.7627 15.0625 69.2229 14.8807C69.6888 14.6989 70.0496 14.446 70.3053 14.1222C70.5609 13.7983 70.6888 13.4261 70.6888 13.0057C70.6888 12.6136 70.5723 12.2841 70.3394 12.017C70.1121 11.75 69.7769 11.5227 69.3337 11.3352C68.8962 11.1477 68.3592 10.9773 67.7229 10.8239L65.8223 10.3466C64.3507 9.98864 63.1888 9.42898 62.3365 8.66761C61.4842 7.90625 61.0609 6.88068 61.0666 5.59091C61.0609 4.53409 61.3422 3.6108 61.9104 2.82102C62.4842 2.03125 63.2712 1.41477 64.2712 0.971591C65.2712 0.528409 66.4075 0.306818 67.6803 0.306818C68.9757 0.306818 70.1064 0.528409 71.0723 0.971591C72.0439 1.41477 72.7996 2.03125 73.3394 2.82102C73.8791 3.6108 74.1575 4.52557 74.1746 5.56534H70.6377ZM83.7903 4.90909V7.63636H75.9068V4.90909H83.7903ZM77.6966 1.77273H81.3273V13.9773C81.3273 14.3125 81.3784 14.5739 81.4807 14.7614C81.583 14.9432 81.725 15.071 81.9068 15.1449C82.0943 15.2187 82.3102 15.2557 82.5546 15.2557C82.725 15.2557 82.8955 15.2415 83.0659 15.2131C83.2364 15.179 83.3671 15.1534 83.458 15.1364L84.029 17.8381C83.8472 17.8949 83.5915 17.9602 83.2619 18.0341C82.9324 18.1136 82.5318 18.1619 82.0602 18.179C81.1852 18.2131 80.4182 18.0966 79.7591 17.8295C79.1057 17.5625 78.5972 17.1477 78.2335 16.5852C77.8699 16.0227 77.6909 15.3125 77.6966 14.4545V1.77273ZM91.9296 18.2557C90.6057 18.2557 89.4608 17.9744 88.4949 17.4119C87.5347 16.8437 86.7932 16.054 86.2705 15.0426C85.7477 14.0256 85.4864 12.8466 85.4864 11.5057C85.4864 10.1534 85.7477 8.97159 86.2705 7.96023C86.7932 6.94318 87.5347 6.15341 88.4949 5.59091C89.4608 5.02273 90.6057 4.73864 91.9296 4.73864C93.2534 4.73864 94.3955 5.02273 95.3557 5.59091C96.3216 6.15341 97.0659 6.94318 97.5886 7.96023C98.1114 8.97159 98.3727 10.1534 98.3727 11.5057C98.3727 12.8466 98.1114 14.0256 97.5886 15.0426C97.0659 16.054 96.3216 16.8437 95.3557 17.4119C94.3955 17.9744 93.2534 18.2557 91.9296 18.2557ZM91.9466 15.4432C92.5489 15.4432 93.0517 15.2727 93.4551 14.9318C93.8585 14.5852 94.1625 14.1136 94.3671 13.517C94.5773 12.9205 94.6824 12.2415 94.6824 11.4801C94.6824 10.7188 94.5773 10.0398 94.3671 9.44318C94.1625 8.84659 93.8585 8.375 93.4551 8.02841C93.0517 7.68182 92.5489 7.50852 91.9466 7.50852C91.3386 7.50852 90.8273 7.68182 90.4125 8.02841C90.0034 8.375 89.6938 8.84659 89.4835 9.44318C89.279 10.0398 89.1767 10.7188 89.1767 11.4801C89.1767 12.2415 89.279 12.9205 89.4835 13.517C89.6938 14.1136 90.0034 14.5852 90.4125 14.9318C90.8273 15.2727 91.3386 15.4432 91.9466 15.4432ZM100.734 18V4.90909H104.253V7.19318H104.39C104.628 6.38068 105.029 5.76705 105.591 5.35227C106.154 4.93182 106.802 4.72159 107.535 4.72159C107.716 4.72159 107.913 4.73295 108.123 4.75568C108.333 4.77841 108.518 4.80966 108.677 4.84943V8.07102C108.506 8.01989 108.27 7.97443 107.969 7.93466C107.668 7.89489 107.393 7.875 107.143 7.875C106.609 7.875 106.131 7.99148 105.711 8.22443C105.296 8.4517 104.966 8.76989 104.722 9.17898C104.484 9.58807 104.364 10.0597 104.364 10.5938V18H100.734ZM115.91 18.2557C114.564 18.2557 113.405 17.983 112.433 17.4375C111.467 16.8864 110.723 16.108 110.2 15.1023C109.677 14.0909 109.416 12.8949 109.416 11.5142C109.416 10.1676 109.677 8.9858 110.2 7.96875C110.723 6.9517 111.459 6.15909 112.408 5.59091C113.362 5.02273 114.481 4.73864 115.765 4.73864C116.629 4.73864 117.433 4.87784 118.177 5.15625C118.927 5.42898 119.581 5.84091 120.138 6.39205C120.7 6.94318 121.138 7.63636 121.45 8.47159C121.763 9.30114 121.919 10.2727 121.919 11.3864V12.3835H110.865V10.1335H118.501C118.501 9.6108 118.388 9.14773 118.16 8.74432C117.933 8.34091 117.618 8.02557 117.214 7.7983C116.817 7.56534 116.354 7.44886 115.825 7.44886C115.274 7.44886 114.785 7.5767 114.359 7.83239C113.939 8.08239 113.609 8.42045 113.371 8.84659C113.132 9.26705 113.01 9.7358 113.004 10.2528V12.392C113.004 13.0398 113.123 13.5994 113.362 14.071C113.606 14.5426 113.95 14.9062 114.393 15.1619C114.837 15.4176 115.362 15.5455 115.97 15.5455C116.373 15.5455 116.743 15.4886 117.078 15.375C117.413 15.2614 117.7 15.0909 117.939 14.8636C118.177 14.6364 118.359 14.358 118.484 14.0284L121.842 14.25C121.672 15.0568 121.322 15.7614 120.794 16.3636C120.271 16.9602 119.595 17.4261 118.765 17.7614C117.942 18.0909 116.99 18.2557 115.91 18.2557Z" fill="#3A4895"/>
</svg>
