<svg width="34" height="25" viewBox="0 0 34 25" fill="none" xmlns="http://www.w3.org/2000/svg">
<path d="M30.0443 14.5829L30.0443 14.583C29.9723 14.8509 29.649 15.125 29.1744 15.125H12.2296H11.5941L11.7436 15.7427L12.122 17.3052L12.2145 17.6875H12.6079H28.1234C28.439 17.6875 28.6924 17.8111 28.8442 17.9717C28.9928 18.129 29.041 18.3121 28.9934 18.4892L28.6745 19.6745L28.56 20.0999L28.9676 20.2671C29.9044 20.6512 30.4827 21.4296 30.4827 22.2656C30.4827 23.4239 29.3397 24.5 27.7457 24.5C26.1517 24.5 25.0087 23.4239 25.0087 22.2656C25.0087 21.6712 25.2969 21.114 25.7999 20.6977L26.8695 19.8125H25.4811H13.3628H11.9742L13.044 20.6977C13.5471 21.114 13.8353 21.6712 13.8353 22.2656C13.8353 23.4239 12.6923 24.5 11.0983 24.5C9.50426 24.5 8.36127 23.4239 8.36127 22.2656C8.36127 21.4815 8.8685 20.7508 9.70582 20.344L10.0681 20.168L9.9733 19.7766L5.91272 3.00733L5.82014 2.625H5.42676H1.38728C0.81484 2.625 0.5 2.24844 0.5 1.95312V1.17188C0.5 0.876557 0.81484 0.5 1.38728 0.5H7.31382C7.7976 0.5 8.12135 0.783509 8.18699 1.05466L8.18699 1.05469L8.71682 3.24268L8.8094 3.625H9.20278H31.9069C32.2225 3.625 32.4759 3.74856 32.6277 3.90921C32.7763 4.06647 32.8245 4.24964 32.7769 4.42669L30.0443 14.5829Z" stroke="#3A4895"/>
</svg>
